<svg height="128" width="128" xmlns="http://www.w3.org/2000/svg">
  <rect fill="#259ef4" height="104" rx="8" width="104" x="12" y="15.000002"/>
  <path d="m20.000016 15h88.000004c4.432 0 8 3.568 8 8v5h-104.000004v-5c0-4.432 3.568-8 8-8z" opacity=".8"/>
  <g fill="#fff">
    <rect height="3" rx="1" width="3" x="62.5" y="20.000002"/>
    <rect height="3" rx="1" width="3" x="67.5" y="20.000002"/>
    <rect height="3" rx="1" width="3" x="57.5" y="20.000002"/>
  </g>
  <path d="m20.000016 119h88.000004c4.432 0 8-3.568 8-8v-20h-104.000004v20c0 4.432 3.568 8 8 8z" opacity=".8"/>
  <path d="m63.488856 40.6c-2.33611 0-4.224841 1.891591-4.224143 4.222222-.000529 1.758511 1.105975 3.210505 2.640089 3.842882v1.434894h-6.336204c-.280494 0-.528028.22971-.528028.527778v1.583333c0 .298068.22936.527778.528028.527778h6.336204v19.527775c0 .542243-.905255.553512-1.419048.610244-.752732-.0046-1.210365-.196659-1.93056-.395835-1.626432-.475376-3.179122-1.134209-4.669663-1.929686-.62756-.347771-1.240177-.686796-1.798556-1.138022-.240671-.20523-.520594-.501964-.495027-.841144.03252-.256761.162608-.530284.445531-.577258.25499-.04036.484033.09635.709507.181424.194385.08378.328111-.151874.297021-.313368-.03126-.425442-.175513-.819238-.396013-1.1875-.458774-.75428-1.164786-1.315331-1.897559-1.797743-.782375-.499403-1.61641-1.048485-2.112082-1.847222-.09863-.147618-.208113-.391854-.429015-.313367-.307095.09956-.476599.40039-.627021.659721-.423185.804986-.634213 1.673352-.825017 2.556424-.156864.702619-.186792 1.44467-.132005 2.16059.05671.716331.105772 1.442163.396004 2.111111.182788.439605.504594.79402.825038 1.138021.204469-.216096.417831-.44805.627021-.659722.271074-.272019.609776-.448631 1.006529-.395834.539993.06947 1.027692.396542 1.452048.709202.597738.464602 1.156529.950807 1.765555 1.401908.963707.736144 2.026649 1.275046 3.118612 1.797743.909743.422287 1.844503.844071 2.788588 1.1875.169072.0738.355896.07045.528029.131945 1.699119.70633 3.130523 1.528417 4.30663 3.001735.0021.02021-.0021.0632 0 .08247.01352-.01747.03591-.03221.04953-.04945.01352.01726.03601.03204.04953.04945.0084-.04069-.0084-.09108 0-.131944 1.172432-1.456229 2.617818-2.250207 4.30664-2.952257.172135-.06149.358947-.05814.528018-.131945.944086-.343428 1.878835-.765214 2.788589-1.1875 1.091963-.522696 2.154916-1.061598 3.118611-1.797741.609016-.451104 1.167828-.937305 1.765566-1.40191.424357-.31266.912045-.639728 1.452048-.709201.396742-.0528.735445.123809 1.006529.395833.20918.211671.422541.443628.627022.659722.320443-.344001.642239-.698417.825028-1.138021.29023-.668945.339283-1.394781.396002-2.111111.05481-.715918.02492-1.45797-.132004-2.16059-.190805-.883072-.401822-1.751439-.825028-2.556422-.150411-.25933-.319915-.560158-.62701-.659723-.220912-.07849-.330424.165749-.429026.313367-.495661.798737-1.329697 1.34782-2.112061 1.847223-.732783.482413-1.438796 1.043462-1.89757 1.797743-.22051.368263-.364722.762056-.396012 1.187499-.03104.161496.102642.397157.29701.313369.225474-.08508.454528-.221792.709518-.181424.282922.04698.413005.320496.44552.577257.02555.33918-.254345.635912-.495016.841146-.55838.451222-1.170996.790247-1.798567 1.138017-1.490541.795477-3.04322 1.454309-4.669653 1.929687-.720194.199175-1.177827.391182-1.93057.395834-.646727.115226-1.419038-.235734-1.419038-.610244v-19.527776h6.336205c.244134 0 .528018-.211536.528018-.527778v-1.583333c0-.307154-.247525-.527778-.528018-.527778h-6.336205v-1.434894c1.534114-.632377 2.640608-2.084371 2.64008-3.842882.000679-2.330631-1.888041-4.222222-4.22415-4.222222zm-.08248 2.061632c1.134025 0 2.062903.897273 2.062565 2.028647.000338 1.131374-.92854 2.06163-2.062565 2.06163-1.134045-.000001-2.079419-.930254-2.079081-2.06163-.000338-1.131374.945036-2.028647 2.079081-2.028647z" fill="#fff"/>
  <path d="m50.103458 98v1.835443h2.467668v6.184897c0 1.99304 1.029252 3.25877 2.990661 3.25877.980705 0 1.534253-.1581 2.35678-.427l-.522994-1.70965c-.474534.18981-.854301.25321-1.218111.25321-.664348 0-1.281002-.31611-1.281002-1.281v-8.114669zm28.88379 0v11.08878h2.325334v-1.97777l1.15522-1.23301 2.055561 3.21078h2.515664l-3.227332-4.65066 2.989006-3.19423h-2.545455l-2.879772 3.16278h-.06289v-6.40667zm-33.565903 3.05356c-.838345 0-1.707517.41034-2.340229.97978h-.04799l-.17378-.78945h-1.898337v10.75611h2.325334v-2.29388l-.110888-1.28101h.06455c.553623.55362 1.233795.854 1.929778.854 1.755778 0 3.399457-1.55119 3.399457-4.24022 0-2.42011-1.186482-3.98533-3.14789-3.98533zm18.301453 0c-1.344516 0-2.593617.44233-3.669228 1.05922l.822555 1.51933c.885797-.4429 1.628971-.72822 2.388226-.72822 1.059793 0 1.597467.42686 1.676558 1.13867-3.717188.22144-5.172006 1.10745-5.172006 2.86323 0 1.32869.996774 2.37332 2.578556 2.37332 1.01234 0 1.992889-.47469 2.783779-1.07577h.06289l.173778.88544h1.898338v-4.49178c0-2.4043-1.344768-3.54344-3.543444-3.54344zm10.550891 0c-1.170518 0-2.024173.56865-2.704338 1.233h-.06455l-.173779-1.04267h-1.898332v7.84489h2.325334v-5.23655c.553622-.53781.966057-.82255 1.59877-.82255.854162 0 1.153563.47535 1.153563 1.51933v4.53977h2.325334v-4.84099c0-1.97723-.790409-3.19423-2.562005-3.19423zm-29.532566 1.89833c.980705 0 1.439886.71067 1.439886 2.11845 0 1.61342-.67914 2.31044-1.549119 2.31044-.395446 0-.902649-.14337-1.345549-.52299v-3.17935c.490353-.50617.948613-.72655 1.454782-.72655zm20.199785 2.48256v1.29755c-.553624.42708-1.154352.74311-1.850337.74311-.664349 0-1.090672-.23694-1.090672-.74311 0-.68016.631608-1.17101 2.941009-1.29755z" fill="#fff"/>
</svg>
