<svg height="128" width="128" xmlns="http://www.w3.org/2000/svg">
  <rect fill="#259ef4" height="104" rx="8" width="104" x="12" y="15.000002"/>
  <path d="m20.000016 15h88.000004c4.432 0 8 3.568 8 8v5h-104.000004v-5c0-4.432 3.568-8 8-8z" opacity=".8"/>
  <g fill="#fff">
    <rect height="3" rx="1" width="3" x="62.5" y="20.000002"/>
    <rect height="3" rx="1" width="3" x="67.5" y="20.000002"/>
    <rect height="3" rx="1" width="3" x="57.5" y="20.000002"/>
  </g>
  <path d="m20.000016 119h88.000004c4.432 0 8-3.568 8-8v-20h-104.000004v20c0 4.432 3.568 8 8 8z" opacity=".8"/>
  <g fill="#fff">
    <path d="m63.488856 40.6c-2.33611 0-4.224841 1.891591-4.224143 4.222222-.000529 1.758511 1.105975 3.210505 2.640089 3.842882v1.434894h-6.336204c-.280494 0-.528028.22971-.528028.527778v1.583333c0 .298068.22936.527778.528028.527778h6.336204v19.527775c0 .542243-.905255.553512-1.419048.610244-.752732-.0046-1.210365-.196659-1.93056-.395835-1.626432-.475376-3.179122-1.134209-4.669663-1.929686-.62756-.347771-1.240177-.686796-1.798556-1.138022-.240671-.20523-.520594-.501964-.495027-.841144.03252-.256761.162608-.530284.445531-.577258.25499-.04036.484033.09635.709507.181424.194385.08378.328111-.151874.297021-.313368-.03126-.425442-.175513-.819238-.396013-1.1875-.458774-.75428-1.164786-1.315331-1.897559-1.797743-.782375-.499403-1.61641-1.048485-2.112082-1.847222-.09863-.147618-.208113-.391854-.429015-.313367-.307095.09956-.476599.40039-.627021.659721-.423185.804986-.634213 1.673352-.825017 2.556424-.156864.702619-.186792 1.44467-.132005 2.16059.05671.716331.105772 1.442163.396004 2.111111.182788.439605.504594.79402.825038 1.138021.204469-.216096.417831-.44805.627021-.659722.271074-.272019.609776-.448631 1.006529-.395834.539993.06947 1.027692.396542 1.452048.709202.597738.464602 1.156529.950807 1.765555 1.401908.963707.736144 2.026649 1.275046 3.118612 1.797743.909743.422287 1.844503.844071 2.788588 1.1875.169072.0738.355896.07045.528029.131945 1.699119.70633 3.130523 1.528417 4.30663 3.001735.0021.02021-.0021.0632 0 .08247.01352-.01747.03591-.03221.04953-.04945.01352.01726.03601.03204.04953.04945.0084-.04069-.0084-.09108 0-.131944 1.172432-1.456229 2.617818-2.250207 4.30664-2.952257.172135-.06149.358947-.05814.528018-.131945.944086-.343428 1.878835-.765214 2.788589-1.1875 1.091963-.522696 2.154916-1.061598 3.118611-1.797741.609016-.451104 1.167828-.937305 1.765566-1.40191.424357-.31266.912045-.639728 1.452048-.709201.396742-.0528.735445.123809 1.006529.395833.20918.211671.422541.443628.627022.659722.320443-.344001.642239-.698417.825028-1.138021.29023-.668945.339283-1.394781.396002-2.111111.05481-.715918.02492-1.45797-.132004-2.16059-.190805-.883072-.401822-1.751439-.825028-2.556422-.150411-.25933-.319915-.560158-.62701-.659723-.220912-.07849-.330424.165749-.429026.313367-.495661.798737-1.329697 1.34782-2.112061 1.847223-.732783.482413-1.438796 1.043462-1.89757 1.797743-.22051.368263-.364722.762056-.396012 1.187499-.03104.161496.102642.397157.29701.313369.225474-.08508.454528-.221792.709518-.181424.282922.04698.413005.320496.44552.577257.02555.33918-.254345.635912-.495016.841146-.55838.451222-1.170996.790247-1.798567 1.138017-1.490541.795477-3.04322 1.454309-4.669653 1.929687-.720194.199175-1.177827.391182-1.93057.395834-.646727.115226-1.419038-.235734-1.419038-.610244v-19.527776h6.336205c.244134 0 .528018-.211536.528018-.527778v-1.583333c0-.307154-.247525-.527778-.528018-.527778h-6.336205v-1.434894c1.534114-.632377 2.640608-2.084371 2.64008-3.842882.000679-2.330631-1.888041-4.222222-4.22415-4.222222zm-.08248 2.061632c1.134025 0 2.062903.897273 2.062565 2.028647.000338 1.131374-.92854 2.06163-2.062565 2.06163-1.134045-.000001-2.079419-.930254-2.079081-2.06163-.000338-1.131374.945036-2.028647 2.079081-2.028647z"/>
    <path d="m52.681641 97.365234v9.324216c0 1.80266.60603 3 2.443359 3 .589332 0 1.041271-.10522 1.335938-.22656l-.3125-1.97461c-.138667.0347-.208502.0332-.3125.0332-.208 0-.484375-.1719-.484376-.72656v-9.429686zm24.179687 0v12.115236h2.652344v-2.13086l.988281-1.14453 1.871094 3.27539h2.912109l-3.207031-5.02735 3-3.58789h-2.947266l-2.566406 3.25977h-.050781v-6.759766zm-29.292969 3.292966c-.883998 0-1.75149.4324-2.410156 1.03907h-.068359l-.191406-.83204h-2.183594v11.76954h2.669922v-2.4961l-.087891-1.33398c.606664.572 1.283965.88476 2.029297.88476 1.854663 0 3.605469-1.70007 3.605469-4.66406 0-2.652-1.283286-4.36719-3.363282-4.36719zm13.761719 0c-1.351999 0-2.58232.43363-3.708984 1.12696l.935547 1.73242c.866664-.48533 1.560574-.72852 2.253906-.72852.883997 0 1.249026.41629 1.318359 1.12696-3.397327.34666-4.802734 1.33625-4.802734 3.15625 0 1.43866.989076 2.61718 2.566406 2.61718.970665 0 1.750272-.43484 2.460938-1.07617h.068359l.191406.86719h2.183594v-4.88867c0-2.704-1.248135-3.9336-3.466797-3.9336zm10.763672 0c-1.178664 0-2.045194.58988-2.755859 1.28321h-.06836l-.191406-1.07618h-2.183594v8.61524h2.669922v-5.77149c.537332-.48533.901147-.78125 1.507813-.78125.693332 0 1.005859.36455 1.005859 1.56055v4.99219h2.685547v-5.33789c0-2.14933-.797925-3.48438-2.669922-3.48438zm-25.322266 2.1836c.953332 0 1.402344.71075 1.402344 2.21875 0 1.75066-.658236 2.42773-1.490234 2.42773-.416 0-.865495-.12258-1.298828-.5039v-3.41407c.467998-.50266.884051-.72851 1.386718-.72851zm15.357422 2.7207v1.37109c-.415999.416-.781026.67578-1.318359.67579-.589332 0-.917969-.24344-.917969-.7461 0-.60667.520332-1.07545 2.236328-1.30078z"/>
  </g>
</svg>
