<svg height="128" width="128" xmlns="http://www.w3.org/2000/svg" xmlns:xlink="http://www.w3.org/1999/xlink">
  <linearGradient id="a" gradientTransform="matrix(-.80000023 0 0 .80000023 120.69036 20.800009)" gradientUnits="userSpaceOnUse" x1="19.874987" x2="19.874987" xlink:href="#b" y1="38.245197" y2="-61.256123"/>
  <linearGradient id="b">
    <stop offset="0" stop-color="#365a7c"/>
    <stop offset="1" stop-color="#5ea1ca"/>
  </linearGradient>
  <linearGradient id="c" gradientTransform="matrix(-.90000026 0 0 .90000026 123.77666 18.900009)" gradientUnits="userSpaceOnUse" x1="19.874987" x2="19.874987" xlink:href="#b" y1="38.245197" y2="-61.256123"/>
  <linearGradient id="d" gradientTransform="matrix(-.80000023 0 0 .80000023 99.690364 20.800009)" gradientUnits="userSpaceOnUse" x1="19.874987" x2="19.874987" xlink:href="#b" y1="38.245197" y2="-61.256123"/>
  <linearGradient id="e" gradientTransform="matrix(-.90000026 0 0 .90000026 102.77666 18.900009)" gradientUnits="userSpaceOnUse" x1="19.874987" x2="19.874987" xlink:href="#b" y1="38.245197" y2="-61.256123"/>
  <linearGradient id="f" gradientTransform="matrix(-.80000023 0 0 .80000023 77.690364 20.800008)" gradientUnits="userSpaceOnUse" x1="19.874987" x2="19.874987" xlink:href="#b" y1="38.245197" y2="-61.256123"/>
  <linearGradient id="g" gradientTransform="matrix(-.90000026 0 0 .90000026 80.776659 18.900009)" gradientUnits="userSpaceOnUse" x1="19.874987" x2="19.874987" xlink:href="#b" y1="38.245197" y2="-61.256123"/>
  <linearGradient id="h" gradientTransform="matrix(-.80000023 0 0 .80000023 56.690364 20.800009)" gradientUnits="userSpaceOnUse" x1="19.874987" x2="19.874987" xlink:href="#b" y1="38.245197" y2="-61.256123"/>
  <linearGradient id="i" gradientTransform="matrix(-.90000026 0 0 .90000026 59.776659 18.900009)" gradientUnits="userSpaceOnUse" x1="19.874987" x2="19.874987" xlink:href="#b" y1="38.245197" y2="-61.256123"/>
  <linearGradient id="j" gradientTransform="matrix(-.19999997 0 0 .19999997 25.172588 -47.799999)" gradientUnits="userSpaceOnUse" x1="19.874987" x2="19.874987" xlink:href="#b" y1="38.245197" y2="-61.256123"/>
  <linearGradient id="k" gradientTransform="matrix(-.17777775 0 0 .17777775 24.486744 -47.377777)" gradientUnits="userSpaceOnUse" x1="19.874987" x2="19.874987" xlink:href="#b" y1="38.245197" y2="-61.256123"/>
  <g transform="translate(0 64)">
    <rect fill="#46a5e9" height="104" rx="6.058252" width="104" x="12" y="-49"/>
    <path d="m64-27.002388c-2.826642 0-5.11196 2.289822-5.111111 5.111112-.000639 2.128724 1.338197 3.886401 3.194445 4.65191v1.736978h-7.666667c-.339381 0-.638888.27807-.638888.638889v1.916666c0 .36082.277509.63889.638888.63889h7.666667v23.638888c0 .6564-1.095346.670041-1.717014.738716-.910785-.0056-1.46452-.23806-2.335937-.479167-1.967947-.575457-3.846654-1.372991-5.650174-2.3359375-.759336-.4209856-1.50059-.8313848-2.176215-1.3776041-.291206-.2484383-.629906-.6076415-.598959-1.0182292.03936-.3108156.196733-.6419223.539063-.6987847.308539-.048862.585681.1166292.858506.2196181.23519.101421.396996-.1838473.359375-.3793403-.03785-.5150096-.212359-.9917095-.479166-1.4375-.555105-.9130751-1.409364-1.592242-2.296007-2.1762153-.946642-.6045409-1.955818-1.2692204-2.555556-2.2361111-.119306-.1786966-.251805-.4743501-.519097-.3793402-.371578.1205213-.576686.4846847-.758681.7986111-.512055.9744563-.767394 2.0256361-.998263 3.094618-.189789.8505393-.226013 1.7488114-.159722 2.6154513.06863.8671384.127982 1.7457767.479166 2.5555556.221164.5321548.610536.9611828.998265 1.3776043.247409-.2615888.505571-.5423759.75868-.7986113.328006-.3292859.737827-.5430779 1.217882-.4791666.653379.084095 1.243482.4800253 1.756945.8585069.723247.562415 1.399377 1.150978 2.136284 1.697048 1.166054.891121 2.452196 1.543477 3.773437 2.176216 1.100779.511188 2.231817 1.021769 3.374132 1.4375.204569.08934.430618.08528.638889.159722 2.055905.855031 3.787867 1.85019 5.210938 3.633681.0021.02447-.0021.0765 0 .09983.01637-.02115.04347-.03898.0599-.05986.01637.02089.04357.03878.0599.05986.01075-.04926-.01057-.110259 0-.159722 1.418611-1.762803 3.167502-2.723935 5.210937-3.573785.208274-.07443.43432-.07038.638889-.159722 1.142316-.41573 2.273354-.926313 3.374132-1.4375 1.321242-.632738 2.607382-1.285094 3.773437-2.176215.736903-.546072 1.413038-1.134632 2.136285-1.697049.513463-.3784835 1.103566-.7744068 1.756944-.8585069.480055-.063907.889875.149875 1.217882.4791666.253111.2562347.51127.5370232.758681.7986113.387724-.4164222.77709-.845452.998255-1.3776043.351185-.8097763.410537-1.6884198.479168-2.5555556.06629-.8666374.03006-1.7649113-.159723-2.6154513-.230871-1.0689824-.486206-2.120163-.998264-3.094618-.181994-.3139251-.387101-.6780853-.758681-.7986111-.267285-.095014-.399797.2006436-.519097.3793402-.599739.9668907-1.608913 1.6315708-2.555555 2.2361111-.886644.5839726-1.740901 1.2631384-2.296007 2.1762153-.266808.4457924-.441313.9224891-.479167 1.4375-.03762.1954942.12419.4807684.359375.3793403.272826-.1029896.54997-.2684841.858507-.2196181.342327.056874.499725.3879697.539062.6987847.03096.4105871-.307753.7697883-.598958 1.0182292-.675624.5462179-1.416879.9566151-2.176215 1.3776001-1.803521.9629465-3.682227 1.7604795-5.650173 2.3359375-.871419.241107-1.425152.473536-2.335938.479167-.78253.139485-1.717013-.285362-1.717013-.738716v-23.638888h7.666665c.295385 0 .63889-.256071.63889-.63889v-1.916666c0-.371819-.299508-.638889-.63889-.638889h-7.666665v-1.736978c1.856243-.76551 3.195085-2.523186 3.194444-4.65191.00083-2.82129-2.28448-5.111112-5.111112-5.111112zm-.09983 2.49566c1.372152 0 2.496074 1.086172 2.49566 2.45573.000409 1.369559-1.123507 2.495659-2.49566 2.495659-1.372159-.000001-2.516037-1.126098-2.515625-2.495659-.000412-1.369558 1.143467-2.45573 2.515625-2.45573z" opacity=".3"/>
    <path d="m18.058253-49h91.883497c3.35627 0 6.05825 2.792348 6.05825 6.260869v5.739131h-104v-5.739131c0-3.468521 2.70198-6.260869 6.058253-6.260869z" opacity=".8"/>
    <path d="m18.058253 55h91.883497c3.35627 0 6.05825-2.792348 6.05825-6.260869v-21.739131h-104v21.739131c0 3.468521 2.70198 6.260869 6.058253 6.260869z" opacity=".8"/>
    <g transform="translate(0 5)">
      <path d="m38.355214 27.000009h-12.710428c-1.465204 0-2.644786 1.179576-2.644786 2.644793v12.71042c0 1.465216 1.179582 2.644793 2.644786 2.644793h12.710429c1.465194 0 2.644785-1.179577 2.644785-2.644793v-12.71042c0-1.465217-1.179591-2.644793-2.644785-2.644793z" fill="url(#i)" opacity=".15"/>
      <path d="m37.649079 28.000009h-11.298158c-1.302404 0-2.350921 1.048512-2.350921 2.350927v11.298151c0 1.302414 1.048517 2.350927 2.350921 2.350927h11.298158c1.302396 0 2.350921-1.048513 2.350921-2.350927v-11.298151c0-1.302415-1.048525-2.350927-2.350921-2.350927z" fill="url(#h)" opacity=".3"/>
      <path d="m59.355214 27.000008h-12.710428c-1.465204 0-2.644786 1.179576-2.644786 2.644793v12.71042c0 1.465216 1.179582 2.644793 2.644786 2.644793h12.710429c1.465194 0 2.644785-1.179576 2.644785-2.644793v-12.71042c0-1.465217-1.179591-2.644793-2.644785-2.644793z" fill="url(#g)" opacity=".15"/>
      <path d="m58.649079 28.000008h-11.298158c-1.302404 0-2.350921 1.048513-2.350921 2.350928v11.298151c0 1.302414 1.048517 2.350927 2.350921 2.350927h11.298158c1.302396 0 2.350921-1.048513 2.350921-2.350927v-11.298151c0-1.302415-1.048525-2.350927-2.350921-2.350927z" fill="url(#f)" opacity=".3"/>
      <path d="m81.355214 27.000008h-12.710428c-1.465204 0-2.644786 1.179576-2.644786 2.644793v12.71042c0 1.465216 1.179582 2.644793 2.644786 2.644793h12.710429c1.465194 0 2.644785-1.179576 2.644785-2.644793v-12.71042c0-1.465217-1.179591-2.644793-2.644786-2.644793z" fill="url(#e)" opacity=".15"/>
      <path d="m80.649079 28.000009h-11.298158c-1.302403 0-2.350921 1.048512-2.350921 2.350927v11.298151c0 1.302414 1.048518 2.350927 2.350921 2.350927h11.298158c1.302396 0 2.350921-1.048513 2.350921-2.350927v-11.298151c0-1.302415-1.048525-2.350927-2.350921-2.350927z" fill="url(#d)" opacity=".3"/>
      <path d="m102.35521 27.000008h-12.710424c-1.465204 0-2.644786 1.179576-2.644786 2.644793v12.71042c0 1.465216 1.179582 2.644793 2.644786 2.644793h12.710434c1.46519 0 2.64478-1.179577 2.64478-2.644793v-12.71042c0-1.465217-1.17959-2.644793-2.64478-2.644793z" fill="url(#c)" opacity=".15"/>
      <path d="m101.64908 28.000009h-11.298159c-1.302404 0-2.350921 1.048512-2.350921 2.350927v11.298151c0 1.302414 1.048517 2.350927 2.350921 2.350927h11.298159c1.3024 0 2.35092-1.048513 2.35092-2.350927v-11.298151c0-1.302415-1.04852-2.350927-2.35092-2.350927z" fill="url(#a)" opacity=".3"/>
      <g fill="#f7f7f7" stroke="#fff" stroke-width=".985427">
        <path d="m37.209607 29.492737h-10.419223c-.718897 0-1.29767.578762-1.29767 1.297672v10.419204c0 .718912.578773 1.297673 1.29767 1.297673h10.419223c.718916 0 1.29768-.578761 1.29768-1.297673v-10.419204c0-.71891-.578764-1.297672-1.29768-1.297672z"/>
        <path d="m58.209607 29.492737h-10.419223c-.718897 0-1.29767.578762-1.29767 1.297672v10.419204c0 .718912.578773 1.297673 1.29767 1.297673h10.419223c.718916 0 1.29768-.578761 1.29768-1.297673v-10.419204c0-.71891-.578764-1.297672-1.29768-1.297672z"/>
        <path d="m80.209607 29.492737h-10.419223c-.718897 0-1.29767.578762-1.29767 1.297672v10.419204c0 .718912.578773 1.297673 1.29767 1.297673h10.419223c.718916 0 1.29768-.578761 1.29768-1.297673v-10.419204c0-.71891-.578764-1.297672-1.29768-1.297672z"/>
        <path d="m101.20961 29.492737h-10.419227c-.718897 0-1.29767.578762-1.29767 1.297672v10.419204c0 .718912.578773 1.297673 1.29767 1.297673h10.419227c.71891 0 1.29768-.578761 1.29768-1.297673v-10.419204c0-.71891-.57877-1.297672-1.29768-1.297672z"/>
      </g>
    </g>
    <g transform="translate(40 1)">
      <path d="m20.412268-46h-2.824538c-.325601 0-.58773.262128-.58773.587732v2.824536c0 .325604.262129.587732.58773.587732h2.824538c.325599 0 .58773-.262128.58773-.587732v-2.824536c0-.325604-.262131-.587732-.58773-.587732z" fill="url(#j)" opacity=".15"/>
      <path d="m20.25535-45.777778h-2.510701c-.289424 0-.522427.233003-.522427.522428v2.5107c0 .289425.233003.522428.522427.522428h2.510701c.289421 0 .522426-.233003.522426-.522428v-2.5107c0-.289425-.233005-.522428-.522426-.522428z" fill="url(#k)" opacity=".3"/>
      <path d="m20.157689-45.446061h-2.315382c-.159755 0-.288371.128615-.288371.288372v2.315378c0 .159758.128616.288372.288371.288372h2.315382c.159759 0 .288373-.128614.288373-.288372v-2.315378c0-.159757-.128614-.288372-.288373-.288372z" fill="#f7f7f7" stroke="#fff" stroke-width=".218983"/>
    </g>
    <g transform="translate(45 1)">
      <path d="m20.412268-46h-2.824538c-.325601 0-.58773.262128-.58773.587732v2.824536c0 .325604.262129.587732.58773.587732h2.824538c.325599 0 .58773-.262128.58773-.587732v-2.824536c0-.325604-.262131-.587732-.58773-.587732z" fill="url(#j)" opacity=".15"/>
      <path d="m20.25535-45.777778h-2.510701c-.289424 0-.522427.233003-.522427.522428v2.5107c0 .289425.233003.522428.522427.522428h2.510701c.289421 0 .522426-.233003.522426-.522428v-2.5107c0-.289425-.233005-.522428-.522426-.522428z" fill="url(#k)" opacity=".3"/>
      <path d="m20.157689-45.446061h-2.315382c-.159755 0-.288371.128615-.288371.288372v2.315378c0 .159758.128616.288372.288371.288372h2.315382c.159759 0 .288373-.128614.288373-.288372v-2.315378c0-.159757-.128614-.288372-.288373-.288372z" fill="#f7f7f7" stroke="#fff" stroke-width=".218983"/>
    </g>
    <g transform="translate(50 1)">
      <path d="m20.412268-46h-2.824538c-.325601 0-.58773.262128-.58773.587732v2.824536c0 .325604.262129.587732.58773.587732h2.824538c.325599 0 .58773-.262128.58773-.587732v-2.824536c0-.325604-.262131-.587732-.58773-.587732z" fill="url(#j)" opacity=".15"/>
      <path d="m20.25535-45.777778h-2.510701c-.289424 0-.522427.233003-.522427.522428v2.5107c0 .289425.233003.522428.522427.522428h2.510701c.289421 0 .522426-.233003.522426-.522428v-2.5107c0-.289425-.233005-.522428-.522426-.522428z" fill="url(#k)" opacity=".3"/>
      <path d="m20.157689-45.446061h-2.315382c-.159755 0-.288371.128615-.288371.288372v2.315378c0 .159758.128616.288372.288371.288372h2.315382c.159759 0 .288373-.128614.288373-.288372v-2.315378c0-.159757-.128614-.288372-.288373-.288372z" fill="#f7f7f7" stroke="#fff" stroke-width=".218983"/>
    </g>
  </g>
</svg>
